# xmcd
#
# Track frame offsets: 
#        183
#        9958
#        19073
#        32160
#        43303
#        60170
#        70885
#        83690
#        95430
#        106323
#        117990
#        129335
#        139025
#        151670
#        162095
#        174035
#
# Disc length: 2453 seconds
#
# Revision: 13
# Processed by: cddbd v1.5.2PL0 Copyright (c) Steve Scherf et al.
# Submitted via: ExactAudioCopyFreeDBPlugin 1.0
#
DISCID=b7099310
DTITLE=Various Artist - Truck Driver Songs~Supertrucker And Country Songs
DYEAR=1988
DGENRE=Country
TTITLE0=Dave Duddley - Truck Drivin' Sun Of A Gun
TTITLE1=Charly Walker - Truck Driving Man
TTITLE2=Connie Smith - Pass Me By If You're Only Passing Through
TTITLE3=Jimmy Dean - Gotta Travel On
TTITLE4=Tommy Cash - The Truck Driver (Roll Truck Roll)
TTITLE5=Billy Walker - Highway Man
TTITLE6=Del Reeves - Girl On The Billboard
TTITLE7=Joe Stampley - Roll On Big Mama
TTITLE8=Chuck Berry - Maybellene
TTITLE9=Charlie Walker - Truck Driving Cat With Nine Wives
TTITLE10=Willie Brothers - Give Me Forty Acres (To Run This Rig)
TTITLE11=Dave Duddley - Six Days On The Road
TTITLE12=Charly Rich - Big Boss Man
TTITLE13=Molly Bee - Big Daddy Gonna Bring It On Home To Mama
TTITLE14=Henson Cargill - Take Me Home Country Road
TTITLE15=Freddie Wheeler - Road Master
EXTD=
EXTT0=
EXTT1=
EXTT2=
EXTT3=
EXTT4=
EXTT5=
EXTT6=
EXTT7=
EXTT8=
EXTT9=
EXTT10=
EXTT11=
EXTT12=
EXTT13=
EXTT14=
EXTT15=
PLAYORDER=
